<?xml version="1.0" encoding="UTF-8" standalone="no"?>
<!-- Created with Inkscape (http://www.inkscape.org/) -->

<svg
   version="1.1"
   id="svg1"
   width="533.33331"
   height="333.33334"
   viewBox="0 0 533.33331 333.33334"
   sodipodi:docname="Rodriguez_Fernandez_Daniel_RPMI_02_TareaAprendizaje3_imagen_vectorial.svg"
   inkscape:version="1.3 (0e150ed6c4, 2023-07-21)"
   xmlns:inkscape="http://www.inkscape.org/namespaces/inkscape"
   xmlns:sodipodi="http://sodipodi.sourceforge.net/DTD/sodipodi-0.dtd"
   xmlns="http://www.w3.org/2000/svg"
   xmlns:svg="http://www.w3.org/2000/svg">
  <defs
     id="defs1" />
  <sodipodi:namedview
     id="namedview1"
     pagecolor="#ffffff"
     bordercolor="#000000"
     borderopacity="0.25"
     inkscape:showpageshadow="2"
     inkscape:pageopacity="0.0"
     inkscape:pagecheckerboard="0"
     inkscape:deskcolor="#d1d1d1"
     inkscape:zoom="1.2195"
     inkscape:cx="244.77245"
     inkscape:cy="107.42107"
     inkscape:window-width="958"
     inkscape:window-height="1000"
     inkscape:window-x="946"
     inkscape:window-y="0"
     inkscape:window-maximized="0"
     inkscape:current-layer="g1" />
  <g
     inkscape:groupmode="layer"
     inkscape:label="Image"
     id="g1">
    <g
       id="g2"
       transform="translate(1.1596624)">
      <path
         style="fill:#d0d0d0;fill-opacity:1"
         d="m 507.99998,312.82994 c 0,-0.27688 1.05,-1.32688 2.33333,-2.33334 2.11474,-1.65849 2.16191,-1.61133 0.50341,0.50341 -1.74183,2.221 -2.83674,2.9273 -2.83674,1.82993 z M 0.10526315,269.8889 c 0.0639786,-1.55326 0.37992039,-1.8692 0.80555553,-0.80556 0.38516082,0.9625 0.33779242,2.1125 -0.10526316,2.55556 -0.44305553,0.44305 -0.7581871,-0.34445 -0.70029237,-1.75 z M 230.66666,266.16327 c 0,-0.27688 1.05,-1.32688 2.33333,-2.33334 2.11474,-1.65849 2.1619,-1.61133 0.50341,0.50341 -1.74183,2.221 -2.83674,2.92731 -2.83674,1.82993 z m 36,-19.4966 -20.66667,-0.77256 20.25464,-0.28038 c 12.37693,-0.17134 20.57515,0.23819 21.07869,1.05294 0.45323,0.73334 0.63864,1.20716 0.41203,1.05295 -0.22662,-0.15421 -9.71203,-0.62804 -21.07869,-1.05295 z M 0.10526315,216.55556 c 0.0639786,-1.55326 0.37992039,-1.8692 0.80555553,-0.80555 0.38516082,0.9625 0.33779242,2.1125 -0.10526316,2.55555 -0.44305553,0.44306 -0.7581871,-0.34444 -0.70029237,-1.75 z M 532.10524,207.22223 c 0.064,-1.55326 0.37992,-1.8692 0.80556,-0.80556 0.38516,0.9625 0.33779,2.1125 -0.10526,2.55556 -0.44306,0.44305 -0.75819,-0.34445 -0.7003,-1.75 z M 233.08332,63.089183 c 0.9625,-0.385161 2.1125,-0.337792 2.55556,0.105263 0.44306,0.443056 -0.34444,0.758188 -1.75,0.700293 -1.55326,-0.06398 -1.8692,-0.379921 -0.80556,-0.805556 z m 61.25,0.02778 c 0.91667,-0.369883 2.41667,-0.369883 3.33334,0 0.91666,0.369883 0.16666,0.672515 -1.66667,0.672515 -1.83333,0 -2.58333,-0.302632 -1.66667,-0.672515 z"
         id="path9" />
      <path
         style="fill:#b9b9b9;fill-opacity:1"
         d="m 301.91611,266.33334 -3.91612,-4.33333 4.33333,3.91612 c 4.03928,3.65037 4.9462,4.75054 3.91612,4.75054 -0.22946,0 -2.17946,-1.95 -4.33333,-4.33333 z M 0.25993162,264.66667 c 0.0271729,-2.2 0.3259981,-2.93858 0.66405597,-1.64129 0.33805791,1.29729 0.31582551,3.09729 -0.0494053,4 -0.36523078,0.90271 -0.64182358,-0.15871 -0.61465067,-2.35871 z M 532.10524,243.22223 c 0.064,-1.55326 0.37992,-1.8692 0.80556,-0.80556 0.38516,0.9625 0.33779,2.1125 -0.10526,2.55556 -0.44306,0.44306 -0.75819,-0.34444 -0.7003,-1.75 z M 0.10526315,220.55556 c 0.0639786,-1.55326 0.37992039,-1.8692 0.80555553,-0.80555 0.38516082,0.9625 0.33779242,2.1125 -0.10526316,2.55555 -0.44305553,0.44306 -0.7581871,-0.34444 -0.70029237,-1.75 z M 532.10524,211.22223 c 0.064,-1.55326 0.37992,-1.8692 0.80556,-0.80556 0.38516,0.9625 0.33779,2.1125 -0.10526,2.55556 -0.44306,0.44305 -0.75819,-0.34445 -0.7003,-1.75 z M 413.93652,115.45898 c -10.84129,-4.72227 -12.56488,-20.099806 -3.14162,-28.028955 14.73017,-12.394623 35.26761,5.090688 25.25906,21.505245 -4.66568,7.65198 -13.52682,10.26564 -22.11744,6.52371 z M 249.59276,63.005801 c 7.84269,-0.235318 21.04269,-0.236143 29.33333,-0.0018 8.29064,0.23431 1.8739,0.426843 -14.25943,0.427851 -16.13334,10e-4 -22.91659,-0.190701 -15.0739,-0.426018 z m 197.61387,-44.672467 -2.53998,-3 3,2.539983 c 1.65,1.396991 3,2.746991 3,3 0,1.067005 -1.07306,0.279277 -3.46002,-2.539983 z M 414.33332,1.7836258 c 0.91666,-0.3698831 2.41666,-0.3698831 3.33333,0 0.91667,0.369883 0.16667,0.6725146 -1.66667,0.6725146 -1.83333,0 -2.58333,-0.3026316 -1.66666,-0.6725146 z"
         id="path8" />
      <path
         style="fill:#a3a3a3;fill-opacity:1"
         d="m 423.20663,311.66668 -2.53998,-3 3,2.53998 c 1.65,1.39699 3,2.74699 3,3 0,1.067 -1.07306,0.27928 -3.46002,-2.53998 z M 339.6822,284.39033 c 1.65855,-0.31893 4.05855,-0.30682 5.33333,0.0269 1.27479,0.33372 -0.0822,0.59466 -3.01554,0.57986 -2.93334,-0.0148 -3.97634,-0.28785 -2.31779,-0.60677 z m -157.26554,-1.30114 c 0.9625,-0.38516 2.1125,-0.33779 2.55556,0.10526 0.44305,0.44306 -0.34445,0.75819 -1.75,0.7003 -1.55326,-0.064 -1.8692,-0.37992 -0.80556,-0.80556 z m 10.66667,0 c 0.9625,-0.38516 2.1125,-0.33779 2.55555,0.10526 0.44306,0.44306 -0.34444,0.75819 -1.75,0.7003 -1.55326,-0.064 -1.8692,-0.37992 -0.80555,-0.80556 z M 0.10526315,259.22223 c 0.0639786,-1.55326 0.37992039,-1.8692 0.80555553,-0.80556 0.38516082,0.9625 0.33779242,2.1125 -0.10526316,2.55556 -0.44305553,0.44306 -0.7581871,-0.34444 -0.70029237,-1.75 z M 532.21051,238.66667 c 0,-1.83333 0.30263,-2.58333 0.67251,-1.66666 0.36988,0.91666 0.36988,2.41666 0,3.33333 -0.36988,0.91667 -0.67251,0.16667 -0.67251,-1.66667 z M 93.6115,215.29983 c -8.655442,-1.87948 -20.267631,-6.73892 -24.944836,-10.43886 -2.445901,-1.93485 1.031161,-2.10949 41.999996,-2.10949 49.18355,0 48.83097,-0.0816 32.17881,7.44929 -15.39098,6.96054 -32.5008,8.73257 -49.23397,5.09906 z m 309.30928,-0.66646 c -10.22236,-2.67797 -19.66397,-7.21613 -26.30559,-12.64391 l -3.94854,-3.22689 6.66667,-0.0662 c 13.30382,-0.13202 13.76433,-2.00648 0.66667,-2.7136 -12.12057,-0.65436 -12.49422,-0.76477 -8.66667,-2.56088 4.19347,-1.96782 36.81237,-3.86399 35.0329,-2.0365 -0.5319,0.54626 1.62935,2.37539 4.80277,4.06473 5.39564,2.87232 6.88522,3.02854 22.96709,2.40863 24.36612,-0.93925 30.10721,-2.32345 13.19724,-3.18191 l -13.33334,-0.67688 7.242,-2.33334 c 5.21224,-1.67935 11.37834,-2.30707 22,-2.23962 8.94485,0.0568 13.70761,0.51986 12.09134,1.17558 -2.3394,0.94909 -2.17965,1.14213 1.30162,1.57295 l 3.96829,0.49109 -7.96829,6.36777 c -20.48327,16.36896 -45.4501,21.95542 -69.71416,15.59893 z M 58.481043,197.3777 c -3.140405,-2.61622 -3.021112,-2.62241 51.392267,-2.66667 54.45687,-0.0443 54.53631,-0.0403 52.12668,2.62231 -2.32986,2.57447 -4.10662,2.66667 -51.39227,2.66667 -46.746913,0 -49.122411,-0.11951 -52.126677,-2.62231 z M 419.66665,117.78363 c 0.91667,-0.36988 2.41667,-0.36988 3.33333,0 0.91667,0.36988 0.16667,0.67251 -1.66666,0.67251 -1.83334,0 -2.58334,-0.30263 -1.66667,-0.67251 z m 12.33333,-3.62037 c 0,-0.27687 1.05,-1.32687 2.33334,-2.33333 2.11474,-1.65849 2.1619,-1.61133 0.5034,0.50341 -1.74182,2.22099 -2.83674,2.9273 -2.83674,1.82992 z m 4.75239,-6.55409 c 0.50071,-1.31496 1.24626,-2.05496 1.65678,-1.64445 0.41051,0.41052 8.4e-4,1.48639 -0.91038,2.39084 -1.31682,1.30702 -1.46998,1.15387 -0.7464,-0.74639 z m -32.64712,-3.05361 c 0.064,-1.55326 0.37992,-1.8692 0.80555,-0.80556 0.38516,0.9625 0.3378,2.1125 -0.10526,2.55556 -0.44306,0.44305 -0.75819,-0.34445 -0.70029,-1.75 z M 438.87718,100 c 0,-1.83333 0.30263,-2.58333 0.67251,-1.666664 0.36988,0.916667 0.36988,2.416664 0,3.333334 -0.36988,0.91667 -0.67251,0.16667 -0.67251,-1.66667 z m -33.54386,-7.864783 c 0,-1.238271 7.84762,-8.798413 8.34367,-8.038011 0.20431,0.313205 -1.58943,2.468055 -3.9861,4.788556 -2.39666,2.320501 -4.35757,3.782756 -4.35757,3.249455 z M 50.666665,40.666668 c 1.722327,-1.833333 3.431504,-3.333334 3.79817,-3.333334 0.366667,0 -0.74251,1.500001 -2.464837,3.333334 -1.722327,1.833333 -3.431504,3.333333 -3.798171,3.333333 -0.366666,0 0.742511,-1.5 2.464838,-3.333333 z M 179.82992,32.333334 c -1.65849,-2.114741 -1.61133,-2.161901 0.50341,-0.503407 2.22099,1.741827 2.9273,2.836741 1.82992,2.836741 -0.27687,0 -1.32687,-1.05 -2.33333,-2.333334 z M 442.49658,13.666667 c -1.6585,-2.114741 -1.61134,-2.161901 0.5034,-0.503407 2.221,1.741826 2.92731,2.83674 1.82993,2.83674 -0.27687,0 -1.32687,-1.05 -2.33333,-2.333333 z"
         id="path7" />
      <path
         style="fill:#8c8c8c;fill-opacity:1"
         d="m 454.66665,330.23948 c -17.99623,-5.23619 -29.55512,-15.20897 -50.1114,-43.23509 -8.73873,-11.91426 -16.10821,-21.66426 -16.37663,-21.66667 -0.26842,-0.002 -3.34485,2.09272 -6.83651,4.65584 -3.49167,2.56311 -10.47205,6.61311 -15.51197,9 -8.53079,4.04014 -10.13013,4.33978 -23.16349,4.33978 -13.12275,0 -14.50461,-0.26387 -22.05318,-4.21111 -10.26294,-5.36661 -20.41801,-14.50194 -28.12189,-25.29796 l -6.059,-8.49093 -20.21629,0.0103 -20.2163,0.0103 -2.85819,4.98973 c -4.46797,7.80001 -13.14667,16.96449 -20.80653,21.97115 -24.01246,15.6951 -48.74368,14.43905 -71.79411,-3.64627 l -7.45884,-5.85219 -16.53035,22.83696 c -9.0917,12.56032 -18.03522,24.27067 -19.8745,26.02299 -14.366424,13.68722 -34.215986,20.39333 -51.968404,17.55737 -8.95189,-1.43007 -21.882288,-7.06366 -28.414098,-12.37961 l -3.705031,-3.01535 3.204518,-7.25266 c 1.762485,-3.98896 4.622177,-12.65266 6.35487,-19.25266 2.803807,-10.67998 3.151655,-14.93338 3.162207,-38.66667 0.01332,-29.96206 0.0101,-29.97872 -11.405812,-59.01736 -7.00716,-17.8241 -13.530305,-40.07965 -13.343925,-45.52656 0.330669,-9.66377 11.957257,-48.2438 20.529665,-68.122748 12.582056,-29.177101 22.232575,-40.709109 39.723547,-47.468145 3.218411,-1.243691 6.953723,-3.522141 8.300692,-5.063223 1.34697,-1.541082 2.06156,-2.051967 1.587978,-1.1353 -1.049312,2.03105 3.045591,2.149642 10.629653,0.307842 2.933333,-0.712364 12.91428,-2.162117 22.17989,-3.221673 14.81562,-1.694221 18.3519,-1.686639 29.33333,0.06289 14.64526,2.33324 22.757,4.569165 29.94345,8.253624 5.97661,3.064179 8.63489,5.85456 15.9252,16.716631 7.54434,11.240567 13.68563,16.316758 21.86176,18.070224 4.3503,0.932971 25.43934,1.47713 57.24666,1.47713 41.69304,0 51.56158,-0.357117 57.34715,-2.075248 9.22995,-2.741001 16.73488,-9.612153 19.45996,-17.816597 1.16766,-3.515493 3.45519,-7.643315 5.0834,-9.172938 10.79373,-10.140184 46.5375,-17.278901 74.73966,-14.926946 8.68292,0.724124 16.42558,1.711175 17.20592,2.193447 0.78033,0.482272 2.67612,1.064832 4.21286,1.294577 3.78891,0.566447 6.29399,1.231918 9.46075,2.513231 1.46666,0.593433 5.58496,2.202222 9.15176,3.575087 14.52094,5.589111 25.93281,17.101099 34.77697,35.082054 5.51598,11.214468 9.18704,22.30275 17.511,52.891231 l 6.28853,23.10877 -1.66811,9.96631 c -1.84056,10.99662 -6.9527,26.71557 -13.01983,40.03369 -5.20842,11.43313 -9.23134,23.9995 -11.09799,34.66667 -2.29145,13.09471 -1.87713,51.91191 0.68628,64.29779 2.32012,11.21032 5.31696,20.56012 7.39108,23.05928 1.68406,2.02917 -12.08989,11.91255 -21.6806,15.55673 -8.77022,3.33242 -21.41498,4.20096 -29.00576,1.99234 z M 204.71746,266.17922 c 23.10109,-10.7573 29.70502,-45.00107 12.2071,-63.29827 -7.29938,-7.6328 -16.18584,-11.38319 -26.92457,-11.36307 -11.19372,0.021 -17.00481,2.28086 -25.13456,9.7746 -6.31907,5.82471 -10.57914,13.48122 -12.0754,21.70279 -1.15008,6.31941 1.27483,19.93134 4.77181,26.78599 8.51484,16.69046 30.27654,24.25791 47.15562,16.39796 z m 153.39556,-0.0288 c 12.09057,-5.62986 19.20681,-15.37024 21.84052,-29.89428 2.53075,-13.95619 -1.27993,-25.55633 -11.48565,-34.96363 -8.12975,-7.49374 -13.94084,-9.75362 -25.13457,-9.7746 -7.48115,-0.014 -10.68014,0.67659 -16.12003,3.48003 -13.11814,6.7604 -20.46895,18.61688 -20.51735,33.09343 -0.0409,12.23353 2.88859,20.97054 9.5804,28.57284 10.9229,12.40907 27.49151,16.1659 41.83668,9.48621 z M 127.51214,215.36516 c 8.81334,-2.07841 20.85006,-7.10605 25.15452,-10.50684 2.44457,-1.93137 -1.05344,-2.10684 -42,-2.10684 -49.184866,0 -48.617328,-0.13094 -32.388493,7.47291 14.304051,6.70201 33.925803,8.75082 49.233973,5.14077 z m 311.82118,-0.0464 c 11.58209,-2.44249 22.91574,-7.9846 33.30162,-16.28434 l 7.96829,-6.36777 -3.96829,-0.49109 c -3.48127,-0.43082 -3.64102,-0.62386 -1.30162,-1.57295 5.09299,-2.06622 -26.51319,-1.38952 -33.45476,0.71628 -3.59988,1.09206 -6.76425,1.99206 -7.03192,2 -0.26768,0.008 0.40364,-1.34437 1.49181,-3.00513 7.3134,-11.16167 0.50106,-25.79528 -12.70116,-27.28337 -7.25737,-0.81801 -13.39238,2.07725 -17.02462,8.03433 -3.08411,5.05811 -3.41651,14.0295 -0.65509,17.68043 2.34138,3.09558 2.54645,4.58817 0.63038,4.58817 -0.77661,0 -1.00076,-0.66544 -0.49811,-1.47875 1.3726,-2.2209 -29.66649,-0.82119 -34.75653,1.56735 -3.82755,1.79611 -3.4539,1.90652 8.66667,2.56088 13.09766,0.70712 12.63715,2.58158 -0.66667,2.7136 l -6.66667,0.0662 3.94854,3.22689 c 15.7045,12.83431 40.28923,18.05923 62.71813,13.32932 z m -8.54242,-19.69451 c 1.45768,-1.11459 6.47829,-1.47437 16,-1.14657 17.53615,0.6037 13.93572,2.64746 -4.79092,2.71952 -10.74733,0.0414 -12.92133,-0.26372 -11.20908,-1.57295 z m -268.79091,1.70907 c 2.40963,-2.6626 2.33019,-2.6666 -52.12668,-2.62231 -54.413379,0.0443 -54.532672,0.0505 -51.392267,2.66667 3.004266,2.5028 5.379764,2.62231 52.126677,2.62231 47.28565,0 49.06241,-0.0922 51.39227,-2.66667 z m -30.28213,-19.30433 c 21.69745,-11.82195 30.76139,-37.35065 20.97785,-59.08432 -4.78219,-10.62342 -14.97794,-20.268904 -25.70017,-24.313142 -11.68889,-4.408846 -26.09271,-3.357982 -37.529045,2.738018 -35.948305,19.161814 -30.259392,71.181134 9.200168,84.126174 1.833337,0.60144 8.433337,0.93189 14.666667,0.73433 9.56278,-0.30307 12.43491,-0.95938 18.38453,-4.20106 z m 261.26356,-22.81288 c 7.28114,-4.6888 10.03794,-14.59338 6.27122,-22.53115 -8.51975,-17.95405 -35.78258,-10.13892 -33.55558,9.619 1.46979,13.03996 16.23504,20.02752 27.28436,12.91215 z m -159.70004,-0.80087 c 3.63405,-3.90069 3.43014,-8.4916 -0.55412,-12.47586 -2.66825,-2.66825 -4.60518,-3.27273 -10.48685,-3.27273 -12.35183,0 -18.44048,8.32227 -11.52181,15.74859 2.25155,2.41675 4.1897,2.91808 11.28139,2.91808 7.09169,0 9.02985,-0.50133 11.28139,-2.91808 z m 89.61362,0.71143 c 3.29895,-2.98551 3.17639,-10.38861 -0.22835,-13.79335 -2.07407,-2.07408 -4.44444,-2.66667 -10.66666,-2.66667 -6.22222,0 -8.59259,0.59259 -10.66667,2.66667 -3.7365,3.7365 -3.57725,11.21099 0.29668,13.92439 4.13928,2.89927 18.011,2.81379 21.265,-0.13104 z m 149.26184,-2.96982 c 4.4357,-4.4357 5.17576,-6.00984 5.17149,-11 -0.0126,-14.73905 -15.00114,-23.38688 -26.77841,-15.45018 -5.68797,3.83313 -7.83867,8.05874 -7.86361,15.45018 -0.0169,4.99963 0.71269,6.55588 5.15681,11 4.69472,4.69472 5.8261,5.17647 12.15686,5.17647 6.33076,0 7.46215,-0.48175 12.15686,-5.17647 z M 427.9902,116.51502 c 10.1134,-4.04658 14.09314,-14.03611 9.42971,-23.669468 -3.70376,-7.650945 -9.50304,-10.816894 -18.04947,-9.853586 -9.21379,1.038527 -14.26812,6.400096 -15.0624,15.977976 -0.52649,6.348838 -0.17227,7.653498 3.14994,11.601718 3.51447,4.17672 9.81301,7.92499 13.51502,8.04282 0.90183,0.0287 4.05957,-0.91605 7.0172,-2.09946 z M 222.56988,105.82019 c 3.62903,-4.61355 3.48889,-7.882618 -0.50928,-11.880793 -2.71334,-2.713339 -4.57882,-3.272728 -10.91407,-3.272728 -8.98444,0 -13.8132,3.343959 -13.8132,9.565751 0,6.43059 4.07939,9.10092 13.90322,9.10092 7.6701,0 8.86004,-0.36887 11.33333,-3.51315 z m 111.44568,0.82927 c 3.44057,-3.80178 3.14005,-10.48913 -0.60773,-13.5239 -4.4257,-3.583717 -17.1993,-3.426908 -21.15643,0.259716 -3.68119,3.429557 -3.8005,9.732304 -0.25141,13.281394 3.86011,3.86012 18.51701,3.84866 22.01557,-0.0172 z M 0.10526315,255.22223 c 0.0639786,-1.55326 0.37992039,-1.8692 0.80555553,-0.80556 0.38516082,0.9625 0.33779242,2.1125 -0.10526316,2.55556 -0.44305553,0.44306 -0.7581871,-0.34444 -0.70029237,-1.75 z M 532.45706,226.00001 c 0.005,-5.86667 0.23925,-8.10081 0.52092,-4.96476 0.28166,3.13605 0.27769,7.93605 -0.009,10.66667 -0.2865,2.73061 -0.51695,0.16475 -0.51211,-5.70191 z M 0.30933692,229.33334 c 0,-2.56667 0.27439368,-3.61667 0.60976373,-2.33333 0.33537005,1.28333 0.33537005,3.38333 0,4.66666 -0.33537005,1.28334 -0.60976373,0.23334 -0.60976373,-2.33333 z M 90.666663,10.16326 c 0,-0.276874 1.05,-1.326874 2.333333,-2.3333335 2.114741,-1.6584942 2.161902,-1.6113338 0.503407,0.5034071 -1.741826,2.2209974 -2.83674,2.9273054 -2.83674,1.8299264 z"
         id="path6" />
      <path
         style="fill:#767676;fill-opacity:1"
         d="m 496.21051,280.00001 c 0,-1.83333 0.30263,-2.58333 0.67251,-1.66667 0.36989,0.91667 0.36989,2.41667 0,3.33334 -0.36988,0.91666 -0.67251,0.16666 -0.67251,-1.66667 z M 1.4385964,275.22223 c 0.063979,-1.55326 0.3799204,-1.8692 0.8055556,-0.80555 0.3851608,0.9625 0.3377923,2.1125 -0.1052632,2.55555 -0.4430555,0.44306 -0.7581871,-0.34444 -0.7002924,-1.75 z M 34.976002,264.00001 c 0,-2.56667 0.274394,-3.61667 0.609764,-2.33334 0.33537,1.28334 0.33537,3.38334 0,4.66667 -0.33537,1.28333 -0.609764,0.23333 -0.609764,-2.33333 z M 529.43858,261.8889 c 0.064,-1.55326 0.37992,-1.8692 0.80555,-0.80556 0.38516,0.9625 0.33779,2.1125 -0.10526,2.55556 -0.44306,0.44305 -0.75819,-0.34445 -0.70029,-1.75 z m -34.512,-6.55556 c 0.0272,-2.2 0.326,-2.93858 0.66406,-1.64129 0.33805,1.29729 0.31582,3.09729 -0.0494,4 -0.36523,0.90271 -0.64182,-0.15871 -0.61465,-2.35871 z m -494.46949957,-12 c 0.004843,-5.86667 0.23925479,-8.10081 0.52091505,-4.96476 0.28166032,3.13606 0.27769782,7.93606 -0.008805,10.66667 -0.28650328,2.73062 -0.51695259,0.16476 -0.51211005,-5.70191 z M 530.87717,250.66667 c 0,-1.83333 0.30263,-2.58333 0.67252,-1.66666 0.36988,0.91666 0.36988,2.41666 0,3.33333 -0.36989,0.91667 -0.67252,0.16667 -0.67252,-1.66667 z M 34.976002,233.33334 c 0,-2.56667 0.274394,-3.61667 0.609764,-2.33333 0.33537,1.28333 0.33537,3.38333 0,4.66666 -0.33537,1.28334 -0.609764,0.23334 -0.609764,-2.33333 z m 461.129238,-2.11111 c 0.064,-1.55326 0.37992,-1.8692 0.80556,-0.80556 0.38516,0.9625 0.33779,2.1125 -0.10526,2.55556 -0.44306,0.44305 -0.75819,-0.34445 -0.7003,-1.75 z m -343.79591,-3.22222 c 0,-2.56667 0.27439,-3.61667 0.60976,-2.33334 0.33537,1.28334 0.33537,3.38334 0,4.66667 -0.33537,1.28333 -0.60976,0.23333 -0.60976,-2.33333 z m 227.99999,0 c 0,-2.56667 0.2744,-3.61667 0.60977,-2.33334 0.33537,1.28334 0.33537,3.38334 0,4.66667 -0.33537,1.28333 -0.60977,0.23333 -0.60977,-2.33333 z M 33.438595,220.55556 c 0.06398,-1.55326 0.379921,-1.8692 0.805556,-0.80555 0.385161,0.9625 0.337792,2.1125 -0.105263,2.55555 -0.443056,0.44306 -0.758188,-0.34444 -0.700293,-1.75 z m -31.9999986,-16 c 0.063979,-1.55326 0.3799204,-1.8692 0.8055556,-0.80555 0.3851608,0.9625 0.3377923,2.1125 -0.1052632,2.55555 -0.4430555,0.44306 -0.7581871,-0.34444 -0.7002924,-1.75 z M 530.77191,199.22223 c 0.064,-1.55326 0.37992,-1.8692 0.80556,-0.80556 0.38516,0.9625 0.33779,2.1125 -0.10527,2.55556 -0.44305,0.44305 -0.75819,-0.34445 -0.70029,-1.75 z m -111.10526,-1.4386 c 0.91667,-0.36988 2.41667,-0.36988 3.33333,0 0.91667,0.36988 0.16667,0.67252 -1.66666,0.67252 -1.83334,0 -2.58334,-0.30264 -1.66667,-0.67252 z m -231.98444,-6.72664 c 1.65855,-0.31892 4.05854,-0.30681 5.33333,0.0269 1.27478,0.33372 -0.0822,0.59466 -3.01555,0.57986 -2.93333,-0.0148 -3.97633,-0.28784 -2.31778,-0.60677 z m 153.33332,0 c 1.65855,-0.31892 4.05855,-0.30681 5.33334,0.0269 1.27478,0.33372 -0.0822,0.59466 -3.01555,0.57986 -2.93333,-0.0148 -3.97634,-0.28784 -2.31779,-0.60677 z m 97.86165,-11.05698 c 0,-1.83334 0.30263,-2.58334 0.67251,-1.66667 0.36988,0.91667 0.36988,2.41667 0,3.33333 -0.36988,0.91667 -0.67251,0.16667 -0.67251,-1.66666 z m -361.003866,-11 -2.539984,-3 3,2.53998 c 2.81926,2.38696 3.606988,3.46002 2.539984,3.46002 -0.253009,0 -1.603009,-1.35 -3,-3 z M 380.99999,157.78363 c 0.91666,-0.36988 2.41666,-0.36988 3.33333,0 0.91667,0.36988 0.16667,0.67252 -1.66667,0.67252 -1.83333,0 -2.58333,-0.30264 -1.66666,-0.67252 z M 156.30933,137.33334 c 0,-2.56667 0.27439,-3.61667 0.60976,-2.33334 0.33537,1.28334 0.33537,3.38334 0,4.66667 -0.33537,1.28333 -0.60976,0.23333 -0.60976,-2.33333 z m 62.04787,1.70036 c 2.39647,-0.29675 5.99647,-0.29063 8,0.0136 2.00354,0.30423 0.0428,0.54703 -4.35721,0.53955 -4.4,-0.007 -6.03925,-0.25641 -3.64279,-0.55315 z m 89.30945,0.002 c 2.38334,-0.29577 6.28334,-0.29577 8.66667,0 2.38333,0.29577 0.43333,0.53776 -4.33333,0.53776 -4.76667,0 -6.71667,-0.24199 -4.33334,-0.53776 z M 394.49658,127 c -1.6585,-2.11474 -1.61134,-2.1619 0.5034,-0.5034 2.221,1.74182 2.92731,2.83674 1.82993,2.83674 -0.27687,0 -1.32687,-1.05 -2.33333,-2.33334 z M 78.666664,104.66667 c 1.722327,-1.83333 3.431504,-3.33333 3.79817,-3.33333 0.366667,0 -0.74251,1.5 -2.464837,3.33333 C 78.27767,106.5 76.568493,108 76.201826,108 c -0.366666,0 0.74251,-1.5 2.464838,-3.33333 z M 224.21052,100 c 0,-1.83333 0.30263,-2.58333 0.67251,-1.666664 0.36989,0.916667 0.36989,2.416664 0,3.333334 -0.36988,0.91667 -0.67251,0.16667 -0.67251,-1.66667 z m 108.95273,-6.33333 c -1.6585,-2.114741 -1.61134,-2.161902 0.5034,-0.503408 2.221,1.741827 2.92731,2.836741 1.82993,2.836741 -0.27687,0 -1.32687,-1.05 -2.33333,-2.333333 z M 206.33333,91.035475 c 2.38333,-0.295769 6.28333,-0.295769 8.66666,0 2.38334,0.295769 0.43334,0.537762 -4.33333,0.537762 -4.76667,0 -6.71667,-0.241993 -4.33333,-0.537762 z m 111.99999,0 c 2.38333,-0.295769 6.28333,-0.295769 8.66667,0 2.38333,0.295769 0.43333,0.537762 -4.33334,0.537762 -4.76666,0 -6.71666,-0.241993 -4.33333,-0.537762 z M 85.08333,23.089182 c 0.9625,-0.385161 2.1125,-0.337792 2.555556,0.105263 0.443055,0.443056 -0.344445,0.758187 -1.75,0.700293 -1.553258,-0.06398 -1.869199,-0.379921 -0.805556,-0.805556 z m 6.666667,-1.333333 c 0.962499,-0.385161 2.112499,-0.337793 2.555555,0.105263 0.443055,0.443055 -0.344444,0.758187 -1.75,0.700292 -1.553257,-0.06398 -1.869199,-0.37992 -0.805555,-0.805555 z M 109,19.11696 c 0.91666,-0.369883 2.41666,-0.369883 3.33333,0 0.91667,0.369883 0.16667,0.672514 -1.66667,0.672514 -1.83333,0 -2.58333,-0.302631 -1.66666,-0.672514 z m 290.66665,0 c 0.91667,-0.369883 2.41667,-0.369883 3.33333,0 0.91667,0.369883 0.16667,0.672514 -1.66666,0.672514 -1.83334,0 -2.58334,-0.302631 -1.66667,-0.672514 z m 16.69204,-0.04095 c 1.29729,-0.338058 3.09729,-0.315826 4,0.04941 0.90271,0.365231 -0.15871,0.641824 -2.35871,0.614651 -2.2,-0.02717 -2.93858,-0.325998 -1.64129,-0.664056 z M 121.69204,17.74268 c 1.29729,-0.338058 3.09729,-0.315826 4,0.04941 0.90271,0.365231 -0.15871,0.641824 -2.35871,0.614651 -2.2,-0.02717 -2.93858,-0.325999 -1.64129,-0.664056 z"
         id="path5" />
      <path
         style="fill:#606060;fill-opacity:1"
         d="m 496.21051,274.66668 c 0,-1.83334 0.30263,-2.58334 0.67251,-1.66667 0.36989,0.91667 0.36989,2.41667 0,3.33333 -0.36988,0.91667 -0.67251,0.16667 -0.67251,-1.66666 z M 33.438595,273.8889 c 0.06398,-1.55326 0.379921,-1.8692 0.805556,-0.80556 0.385161,0.9625 0.337792,2.1125 -0.105263,2.55556 -0.443056,0.44305 -0.758188,-0.34445 -0.700293,-1.75 z M 1.6426702,269.33334 c 0,-2.56667 0.2743937,-3.61667 0.6097637,-2.33333 0.3353701,1.28333 0.3353701,3.38333 0,4.66666 -0.33537,1.28334 -0.6097637,0.23334 -0.6097637,-2.33333 z M 35.139939,248.66667 c -0.0041,-6.6 0.221402,-9.4681 0.501034,-6.37356 0.279632,3.09454 0.282956,8.49454 0.0074,12 -0.275569,3.50546 -0.504358,0.97356 -0.508422,-5.62644 z m 495.737231,-3.33333 c 0,-1.83333 0.30263,-2.58333 0.67252,-1.66667 0.36988,0.91667 0.36988,2.41667 0,3.33334 -0.36989,0.91666 -0.67252,0.16666 -0.67252,-1.66667 z m -34.61726,-8.66667 c 0.0272,-2.2 0.326,-2.93858 0.66406,-1.64129 0.33806,1.29729 0.31582,3.09729 -0.0494,4 -0.36523,0.90271 -0.64182,-0.15871 -0.61465,-2.35871 z m -270.82132,-1.44444 c 0.064,-1.55326 0.37992,-1.8692 0.80555,-0.80556 0.38516,0.9625 0.3378,2.1125 -0.10526,2.55556 -0.44306,0.44306 -0.75819,-0.34445 -0.70029,-1.75 z m 81.33333,0 c 0.064,-1.55326 0.37992,-1.8692 0.80555,-0.80556 0.38516,0.9625 0.3378,2.1125 -0.10526,2.55556 -0.44306,0.44306 -0.75819,-0.34445 -0.70029,-1.75 z M 1.6426702,210.66667 c 0,-2.56666 0.2743937,-3.61666 0.6097637,-2.33333 0.3353701,1.28333 0.3353701,3.38333 0,4.66667 -0.33537,1.28333 -0.6097637,0.23333 -0.6097637,-2.33334 z M 530.97598,205.33334 c 0,-2.56667 0.2744,-3.61667 0.60977,-2.33333 0.33537,1.28333 0.33537,3.38333 0,4.66666 -0.33537,1.28334 -0.60977,0.23334 -0.60977,-2.33333 z m -370.97599,0.91612 c 0,-0.22947 1.95,-2.17947 4.33334,-4.33333 l 4.33333,-3.91612 -3.91612,4.33333 c -3.65038,4.03927 -4.75055,4.9462 -4.75055,3.91612 z m 208.58278,-3.91612 -3.91612,-4.33333 4.33334,3.91612 c 2.38333,2.15386 4.33333,4.10386 4.33333,4.33333 0,1.03008 -1.10017,0.12315 -4.75055,-3.91612 z m -153.37613,0 -2.53998,-3 3,2.53998 c 2.81926,2.38696 3.60699,3.46002 2.53998,3.46002 -0.25301,0 -1.60301,-1.35 -3,-3 z m 102.12668,-0.33333 c 1.72233,-1.83334 3.43151,-3.33334 3.79817,-3.33334 0.36667,0 -0.74251,1.5 -2.46484,3.33334 -1.72232,1.83333 -3.4315,3.33333 -3.79817,3.33333 -0.36666,0 0.74251,-1.5 2.46484,-3.33333 z M 2.7719297,193.88889 c 0.063979,-1.55325 0.3799204,-1.86919 0.8055555,-0.80555 0.3851608,0.9625 0.3377924,2.1125 -0.1052631,2.55555 -0.4430555,0.44306 -0.7581871,-0.34444 -0.7002924,-1.75 z m 429.2280503,0.27438 c 0,-0.27688 1.05,-1.32688 2.33334,-2.33334 2.11474,-1.65849 2.1619,-1.61133 0.5034,0.50341 -1.74182,2.221 -2.83674,2.9273 -2.83674,1.82993 z m 97.4386,-5.60771 c 0.064,-1.55326 0.37992,-1.8692 0.80555,-0.80555 0.38516,0.9625 0.33779,2.1125 -0.10526,2.55555 -0.44306,0.44306 -0.75819,-0.34444 -0.70029,-1.75 z M 4.105263,181.88889 c 0.063979,-1.55325 0.3799204,-1.86919 0.8055555,-0.80555 0.3851608,0.9625 0.3377924,2.1125 -0.1052631,2.55555 -0.4430556,0.44306 -0.7581871,-0.34444 -0.7002924,-1.75 z m 523.999977,-5.33333 c 0.064,-1.55326 0.37992,-1.8692 0.80556,-0.80555 0.38516,0.9625 0.33779,2.1125 -0.10526,2.55555 -0.44306,0.44306 -0.75819,-0.34444 -0.7003,-1.75 z M 5.4385963,171.22223 c 0.063978,-1.55326 0.3799204,-1.8692 0.8055555,-0.80556 0.3851608,0.9625 0.3377924,2.1125 -0.1052631,2.55556 -0.4430556,0.44305 -0.7581872,-0.34445 -0.7002924,-1.75 z M 406.66665,170.16326 c 0,-0.27687 1.05,-1.32687 2.33333,-2.33333 2.11475,-1.65849 2.16191,-1.61133 0.50341,0.50341 -1.74182,2.221 -2.83674,2.9273 -2.83674,1.82992 z M 6.7719296,161.88889 c 0.063979,-1.55325 0.3799204,-1.8692 0.8055555,-0.80555 0.3851608,0.9625 0.3377924,2.1125 -0.1052632,2.55555 -0.4430555,0.44306 -0.7581871,-0.34444 -0.7002923,-1.75 z M 218.3572,156.36703 c 2.39647,-0.29675 5.99647,-0.29063 8,0.0136 2.00354,0.30423 0.0428,0.54702 -4.35721,0.53954 -4.4,-0.007 -6.03925,-0.2564 -3.64279,-0.55315 z m 89.30945,0.002 c 2.38334,-0.29577 6.28334,-0.29577 8.66667,0 2.38333,0.29577 0.43333,0.53776 -4.33333,0.53776 -4.76667,0 -6.71667,-0.24199 -4.33334,-0.53776 z m 143.2531,-1.73632 c -11.53138,-7.03049 -10.38875,-24.06834 1.98108,-29.54011 7.32307,-3.23934 13.80512,-2.18128 19.10487,3.11847 14.11809,14.11809 -4.00955,36.83284 -21.08595,26.42164 z m -57.58643,-0.46923 c 0,-0.27687 1.05,-1.32687 2.33333,-2.33333 2.11474,-1.65849 2.1619,-1.61133 0.50341,0.50341 -1.74183,2.221 -2.83674,2.9273 -2.83674,1.82992 z M 209.33333,143.4966 c 0,-0.27688 1.05,-1.32688 2.33333,-2.33334 2.11474,-1.65849 2.1619,-1.61133 0.50341,0.50341 -1.74183,2.221 -2.83674,2.92731 -2.83674,1.82993 z m 22.49659,-1.82993 c -1.6585,-2.11474 -1.61134,-2.1619 0.5034,-0.50341 1.28334,1.00646 2.33334,2.05646 2.33334,2.33334 0,1.09738 -1.09492,0.39107 -2.83674,-1.82993 z M 400.21051,140 c 0,-1.83333 0.30263,-2.58333 0.67252,-1.66666 0.36988,0.91666 0.36988,2.41666 0,3.33333 -0.36989,0.91667 -0.67252,0.16667 -0.67252,-1.66667 z M 207.69054,108.36703 c 2.39646,-0.29675 5.99646,-0.29063 8,0.0136 2.00353,0.30424 0.0428,0.54703 -4.35721,0.53955 -4.4,-0.007 -6.03926,-0.2564 -3.64279,-0.55315 z m 110.64278,0.002 c 2.38333,-0.29577 6.28333,-0.29577 8.66667,0 2.38333,0.29577 0.43333,0.53776 -4.33334,0.53776 -4.76666,0 -6.71666,-0.24199 -4.33333,-0.53776 z m -98.33333,-0.87221 c 0,-0.27688 1.05,-1.32688 2.33333,-2.33334 2.11475,-1.65849 2.16191,-1.61133 0.50341,0.50341 -1.74182,2.221 -2.83674,2.92731 -2.83674,1.82993 z M 197.54385,100 c 0,-1.83333 0.30263,-2.58333 0.67252,-1.666664 0.36988,0.916667 0.36988,2.416664 0,3.333334 -0.36989,0.91667 -0.67252,0.16667 -0.67252,-1.66667 z M 82.666664,19.496594 c 0,-0.276874 1.049999,-1.326874 2.333333,-2.333334 2.114741,-1.658494 2.161901,-1.611334 0.503407,0.503407 -1.741826,2.220998 -2.83674,2.927306 -2.83674,1.829927 z m 22.416666,-0.407412 c 0.9625,-0.385161 2.1125,-0.337793 2.55555,0.105263 0.44306,0.443056 -0.34444,0.758187 -1.75,0.700292 -1.55325,-0.06398 -1.86919,-0.37992 -0.80555,-0.805555 z m 12,-1.333334 c 0.9625,-0.38516 2.1125,-0.337792 2.55555,0.105264 0.44306,0.443055 -0.34444,0.758187 -1.75,0.700292 -1.55325,-0.06398 -1.86919,-0.37992 -0.80555,-0.805556 z"
         id="path4" />
      <path
         style="fill:#494949;fill-opacity:1"
         d="M 16.690289,306.33334 C 8.0606784,296.25238 4.0291501,286.13696 2.4324575,270.55934 -0.26213219,244.27043 3.3616219,180.26601 9.1387411,152.10986 c 0.8762199,-4.27046 1.0895389,-3.89343 3.3946959,6 1.352848,5.80625 6.243395,20.45681 10.867882,32.55681 10.733735,28.08489 11.757265,34.13515 10.905729,64.46566 -0.574369,20.45824 -1.188514,25.95375 -3.971099,35.53435 -3.423136,11.78604 -7.076771,21.33333 -8.164017,21.33333 -0.346942,0 -2.813682,-2.55 -5.481643,-5.66667 z m 487.327731,2.38078 c -7.24252,-19.04926 -9.72695,-47.78109 -6.60917,-76.43333 1.47783,-13.5812 5.84875,-27.75807 15.75965,-51.11564 2.99529,-7.05916 6.55113,-17.85916 7.90188,-24 L 523.52627,146 l 2.95204,18.45474 c 10.46825,65.44239 5.00927,119.03863 -14.51875,142.54527 -4.87344,5.86635 -6.24991,6.16345 -7.94154,1.71411 z M 187.68221,268.39033 c 1.65855,-0.31893 4.05854,-0.30682 5.33333,0.0269 1.27478,0.33373 -0.0822,0.59467 -3.01555,0.57987 -2.93333,-0.0148 -3.97633,-0.28785 -2.31778,-0.60677 z m 153.98444,0.0239 c 1.28334,-0.33537 3.38334,-0.33537 4.66667,0 1.28333,0.33537 0.23333,0.60976 -2.33333,0.60976 -2.56667,0 -3.61667,-0.27439 -2.33334,-0.60976 z m -167.66666,-6.30127 c -7.69743,-3.96626 -7.80762,-3.99629 -6.53035,-1.77963 0.52819,0.91667 -0.6364,0.21208 -2.58798,-1.56575 -4.31357,-3.92953 -4.72364,-5.47377 -0.54833,-2.06493 1.65,1.34711 0.79946,0.24898 -1.89009,-2.44029 -6.37338,-6.37272 -8.39892,-12.54267 -8.40281,-25.5957 -0.004,-12.05311 1.81664,-16.73038 9.77314,-25.11298 7.95722,-8.38333 13.87224,-10.8373 26.18642,-10.86394 9.22306,-0.0199 11.49906,0.46626 16.81713,3.59263 12.6474,7.43508 18.88191,17.81675 19.04742,31.71763 0.10591,8.8956 -2.6369,21.33333 -4.7045,21.33333 -0.63803,0 -1.16005,0.62878 -1.16005,1.39729 0,0.76851 -1.65,2.94337 -3.66666,4.83303 -2.01667,1.88966 -2.46667,2.62122 -1,1.62569 2.63779,-1.79046 2.63916,-1.77782 0.12668,1.16697 -2.60219,3.04993 -4.26841,4.03038 -2.79335,1.64369 1.2336,-1.99602 0.005,-1.63959 -5.45678,1.58283 -3.67406,2.16776 -7.71436,3.05079 -15.74287,3.44072 -9.58168,0.46536 -11.55259,0.13694 -17.46702,-2.91059 z m 156.16639,1.26157 c -2.84182,-1.01296 -5.81182,-2.48662 -6.6,-3.27481 -1.97373,-1.97373 -3.94212,-1.80647 -2.74922,0.23361 0.536,0.91667 -0.32859,0.52368 -1.92131,-0.87332 -3.46965,-3.04325 -3.8459,-4.46362 -0.56253,-2.12357 1.28333,0.91463 0.53333,-0.0195 -1.66667,-2.07589 -2.2,-2.05637 -3.85,-4.23124 -3.66666,-4.83304 0.18333,-0.6018 -0.18869,-1.09418 -0.82672,-1.09418 -2.0676,0 -4.81041,-12.43773 -4.70449,-21.33333 0.12264,-10.30054 2.49659,-16.40691 9.3107,-23.94931 7.90073,-8.74516 13.97297,-11.33787 26.55384,-11.33787 12.31586,0 18.2144,2.44192 26.18642,10.84086 7.95651,8.3826 9.77675,13.05987 9.77315,25.11298 -0.004,13.05303 -2.02944,19.22298 -8.40282,25.5957 -2.68954,2.68927 -3.39008,3.73468 -1.55675,2.32315 l 3.33333,-2.56643 -3.23242,3.65712 c -3.2271,3.65111 -4.99311,4.84609 -3.43424,2.3238 1.13935,-1.84352 0.85814,-1.75754 -6.55931,2.00558 -7.60343,3.85747 -20.58925,4.46473 -29.2743,1.36895 z M 99.999996,181.1449 l -4.666666,-1.24616 0.420847,-14.03689 0.420846,-14.03688 -14.09254,0.42084 -14.092541,0.42085 L 67.042075,148 c -0.521327,-2.56666 -0.947867,-7.36666 -0.947867,-10.66666 0,-3.3 0.42654,-8.1 0.947867,-10.66667 L 67.989942,122 l 14.092541,0.42085 14.09254,0.42085 -0.420846,-14.01619 -0.420847,-14.016181 5.59043,-1.404663 c 7.09558,-1.782851 13.72356,-1.782851 20.81914,0 l 5.59043,1.404663 -0.41912,13.928671 -0.41912,13.92867 h 13.45212 c 13.21312,0 13.47522,0.0608 14.75245,3.42013 0.71518,1.88108 1.30033,6.94202 1.30033,11.24654 0,4.30452 -0.58515,9.36546 -1.30033,11.24653 C 153.42243,151.93924 153.16033,152 139.94721,152 h -13.45212 l 0.41912,13.92868 0.41912,13.92867 -5.59043,1.40466 c -6.61253,1.66148 -15.25674,1.61492 -21.742904,-0.1171 z m 41.999994,-11.81157 c 1.32732,-1.46667 2.7133,-2.66667 3.07997,-2.66667 0.36667,0 -0.41932,1.2 -1.74663,2.66667 C 142.00601,170.8 140.62003,172 140.25336,172 c -0.36667,0 0.41932,-1.2 1.74663,-2.66667 z m 291.16325,-1 c -1.65849,-2.11474 -1.61133,-2.1619 0.50341,-0.50341 2.221,1.74183 2.92731,2.83674 1.82993,2.83674 -0.27688,0 -1.32688,-1.05 -2.33334,-2.33333 z m -12.80455,-5.25732 c 1.29729,-0.33806 3.09729,-0.31583 4,0.0494 0.90271,0.36523 -0.15871,0.64183 -2.35871,0.61465 -2.2,-0.0272 -2.93858,-0.32599 -1.64129,-0.66405 z m -208.93013,-9.17125 c -2.82905,-2.82906 -2.64834,-8.99091 0.34309,-11.69812 1.70013,-1.53859 4.86684,-2.20665 10.46001,-2.20665 8.99742,0 12.435,2.3064 12.435,8.34309 0,5.73381 -3.18136,7.65691 -12.66667,7.65691 -5.92785,0 -9.10612,-0.62992 -10.57143,-2.09523 z m 89.35299,-0.81201 c -2.84559,-4.06266 -2.66196,-7.21236 0.61133,-10.48565 2.29947,-2.29947 4.11866,-2.66473 11.62124,-2.33333 8.13178,0.35918 9.07051,0.7075 10.94044,4.05956 1.83839,3.29553 1.83835,4.0378 -4.6e-4,7.33333 -1.89445,3.39527 -2.74949,3.69549 -11.55177,4.0561 -8.59626,0.35216 -9.70826,0.10049 -11.62078,-2.63001 z m 69.71503,-0.75942 c -1.6585,-2.11474 -1.61133,-2.1619 0.50341,-0.50341 1.28333,1.00646 2.33333,2.05646 2.33333,2.33333 0,1.09738 -1.09491,0.39108 -2.83674,-1.82992 z M 365.54385,140 c 0,-1.83333 0.30263,-2.58333 0.67251,-1.66666 0.36988,0.91666 0.36988,2.41666 0,3.33333 -0.36988,0.91667 -0.67251,0.16667 -0.67251,-1.66667 z m -223.67054,-35 -2.53998,-3 3,2.53999 c 2.81926,2.38695 3.60699,3.46001 2.53998,3.46001 -0.25301,0 -1.60301,-1.35 -3,-3 z m 58.39335,1.4 c -2.28217,-2.28216 -1.97834,-9.831185 0.49524,-12.304759 3.14863,-3.148631 18.09209,-2.90486 21.03144,0.343083 2.91426,3.220221 2.80435,8.607466 -0.23167,11.355026 -2.94771,2.66764 -18.78291,3.11876 -21.29501,0.60665 z m 111.03656,-1.59214 c -2.50587,-3.82444 -1.45221,-9.610847 2.09582,-11.509694 1.3341,-0.71399 6.03106,-1.298163 10.43769,-1.298163 6.76793,0 8.33435,0.460149 10.08765,2.963342 C 339.45875,102.86477 334.8637,108 322.25907,108 c -7.87937,0 -9.09667,-0.35468 -10.95585,-3.19214 z M 86.696547,15.965505 C 90.941346,11.06567 96.199141,6.5835122 99.319193,5.2049674 106.81971,1.8909869 117.0197,0.78706834 123.64811,2.571913 c 4.84183,1.3037714 5.76289,2.1595303 6.95874,6.465376 0.75805,2.729491 1.38162,5.624152 1.38571,6.432578 0.005,0.90613 -4.84731,1.811122 -12.65062,2.35964 -11.46369,0.805818 -30.606131,3.75806 -37.297923,5.752272 -1.746302,0.520413 -0.191682,-2.024528 4.65253,-7.616274 z m 355.303433,5.874006 c -4.4,-0.997482 -15.71139,-2.215052 -25.13643,-2.70571 l -17.13643,-0.892106 0.86489,-5.454181 c 1.32565,-8.3598389 3.16994,-9.4597104 15.7923,-9.4179975 8.59744,0.028412 12.09447,0.6500102 16.28234,2.8941883 5.16397,2.7672485 21.22258,17.9132252 18.62112,17.5628532 -0.70828,-0.09539 -4.88779,-0.989564 -9.28779,-1.987047 z"
         id="path3" />
      <path
         style="fill:#333333;fill-opacity:1"
         d="m 177.49697,266.28901 c -2.47667,-0.79132 -7.57667,-4.39712 -11.33334,-8.0129 -4.40649,-4.24122 -4.96864,-5.03956 -1.58414,-2.24971 7.9102,6.52037 14.99069,9.24538 24.08717,9.27022 10.75555,0.0294 16.71191,-1.81575 24.30196,-7.52812 l 6.3647,-4.79016 -3.99999,4.34614 c -8.5604,9.30117 -24.76583,13.1407 -37.83636,8.96453 z m 151.16968,-1.46672 c -3.66666,-1.73342 -8.46666,-5.10744 -10.66666,-7.49781 l -4,-4.34614 6.3647,4.79016 c 7.59005,5.71237 13.54642,7.55749 24.30196,7.52812 9.09648,-0.0248 16.17697,-2.74985 24.08717,-9.27022 3.43203,-2.82903 2.89558,-2.06151 -1.55132,2.21954 -10.72524,10.3252 -25.33285,12.81807 -38.53585,6.57635 z m 83.86836,-70.01835 c -5.80727,-3.5412 -9.03974,-11.97794 -7.20289,-18.7995 2.05004,-7.61325 7.94781,-12.00443 16.12308,-12.00443 17.173,0 23.42963,21.8086 8.81339,30.72064 -5.3995,3.29227 -12.41709,3.32523 -17.73358,0.0833 z M 86.533381,174.53727 c -3.226694,-2.27117 -7.249635,-5.72117 -8.939867,-7.66667 -2.869943,-3.30337 -8.260183,-12.53758 -8.260183,-14.15081 0,-0.39588 5.999999,-0.71979 13.333333,-0.71979 h 13.333332 v 13.33334 c 0,15.2888 -0.345078,15.6243 -9.466615,9.20393 z m 40.133279,-9.20393 V 152 h 13.3558 13.35579 l -3.25222,6.41795 c -3.43518,6.77901 -11.28084,14.70893 -17.98017,18.17329 -2.20739,1.14149 -4.34323,2.07543 -4.74632,2.07543 -0.40308,0 -0.73288,-6 -0.73288,-13.33333 z m 249.89124,-9.29181 c -9.63662,-3.89842 -13.20871,-18.56101 -6.47221,-26.56688 7.67826,-9.1251 22.62349,-7.70594 27.98244,2.65714 7.15382,13.83396 -7.14054,29.72289 -21.51023,23.90974 z M 69.333331,121.94689 c 0,-1.61324 5.39024,-10.84745 8.260183,-14.15082 3.856465,-4.43887 14.213938,-11.796067 16.606534,-11.796067 1.391046,0 1.799948,3.028994 1.799948,13.333337 v 13.33333 H 82.666664 c -7.333334,0 -13.333333,-0.3239 -13.333333,-0.71978 z m 57.333329,-12.61355 c 0,-7.33334 0.48253,-13.333337 1.07229,-13.333337 0.58977,0 3.75156,1.699138 7.02621,3.775862 6.80689,4.316805 12.19511,10.292335 15.99233,17.735515 l 2.63003,5.15529 h -13.36043 -13.36043 z"
         id="path2" />
    </g>
  </g>
</svg>
